<svg xmlns="http://www.w3.org/2000/svg" width="176" height="91" viewBox="0 0 176 91" fill="none"><g clip-path="url(#clip0_13_273)"><mask id="mask0_13_273" style="mask-type:luminance" maskUnits="userSpaceOnUse" x="60" y="0" width="56" height="46"><path d="M97.0222 44.1427C95.6089 44.1427 94.2111 44.0039 92.843 43.7289C95.7195 42.357 98.2866 40.3928 100.381 37.9486H111.95C108.006 41.9072 102.668 44.1427 97.0222 44.1427ZM99.5344 36.1417L99.2635 36.4702C96.8119 39.4408 93.6169 41.6759 90.0081 42.9484C89.8895 42.9886 89.771 43.0287 89.6524 43.0689C87.5121 43.7805 85.2728 44.1427 82.9948 44.1427C71.3698 44.1427 61.9121 34.685 61.9121 23.06C61.9121 11.4349 71.3698 1.97716 82.9948 1.97716C83.627 1.97716 84.1893 1.99562 84.6643 2.0425C85.0849 1.78696 85.5694 1.52272 86.1172 1.27278C86.6347 1.03654 87.1238 0.851527 87.5699 0.7053C87.2204 0.607608 86.7436 0.490208 86.1699 0.395627C85.6312 0.306853 85.2224 0.273663 84.8055 0.241099C84.2069 0.194223 83.5975 0.170377 82.9948 0.170377C70.3734 0.170377 60.1053 10.4386 60.1053 23.06C60.1053 35.6812 70.3734 45.9495 82.9948 45.9495C85.1882 45.9495 87.3495 45.6404 89.4325 45.031L89.4385 45.0485L90.0118 44.8558C92.2699 45.5817 94.6258 45.9495 97.0222 45.9495C103.879 45.9495 110.316 42.9135 114.684 37.6201L115.904 36.1417H99.5344Z" fill="white"></path></mask><g mask="url(#mask0_13_273)"><path d="M97.0222 44.1427C95.6089 44.1427 94.2111 44.0039 92.843 43.7289C95.7195 42.357 98.2866 40.3928 100.381 37.9486H111.95C108.006 41.9072 102.668 44.1427 97.0222 44.1427ZM99.5344 36.1417L99.2635 36.4702C96.8119 39.4408 93.6169 41.6759 90.0081 42.9484C89.8895 42.9886 89.771 43.0287 89.6524 43.0689C87.5121 43.7805 85.2728 44.1427 82.9948 44.1427C71.3698 44.1427 61.9121 34.685 61.9121 23.06C61.9121 11.4349 71.3698 1.97716 82.9948 1.97716C83.627 1.97716 84.1893 1.99562 84.6643 2.0425C85.0849 1.78696 85.5694 1.52272 86.1172 1.27278C86.6347 1.03654 87.1238 0.851527 87.5699 0.7053C87.2204 0.607608 86.7436 0.490208 86.1699 0.395627C85.6312 0.306853 85.2224 0.273663 84.8055 0.241099C84.2069 0.194223 83.5975 0.170377 82.9948 0.170377C70.3734 0.170377 60.1053 10.4386 60.1053 23.06C60.1053 35.6812 70.3734 45.9495 82.9948 45.9495C85.1882 45.9495 87.3495 45.6404 89.4325 45.031L89.4385 45.0485L90.0118 44.8558C92.2699 45.5817 94.6258 45.9495 97.0222 45.9495C103.879 45.9495 110.316 42.9135 114.684 37.6201L115.904 36.1417H99.5344Z" fill="#F0EBE8"></path></g><mask id="mask1_13_273" style="mask-type:luminance" maskUnits="userSpaceOnUse" x="74" y="0" width="42" height="43"><path d="M97.0207 1.97734C102.646 1.97734 107.971 4.19937 111.911 8.13381H100.347C98.2607 5.70997 95.7024 3.75675 92.8411 2.39155C94.2099 2.11631 95.6078 1.97734 97.0207 1.97734ZM74.1311 23.0602C74.1311 30.9743 78.1342 38.2199 84.8393 42.4425C84.8862 42.4665 84.9333 42.4906 84.9801 42.5146C85.4263 42.4906 85.9191 42.4423 86.449 42.3564C86.956 42.2742 87.4193 42.1703 87.835 42.0583C87.3133 41.8016 86.6046 41.4259 85.8021 40.9136C81.0502 37.8798 78.8023 33.7491 78.3246 32.8354C76.7769 29.874 75.9379 26.5371 75.9379 23.0602C75.9379 14.0941 81.5825 6.14264 90.0126 3.17412C93.6023 4.44101 96.7884 6.66615 99.2322 9.61393L99.5033 9.94061H115.877L114.651 8.4607C110.283 3.19217 103.857 0.170552 97.0207 0.170552C94.8263 0.170552 92.6648 0.483126 90.5809 1.09313L90.5741 1.07239L89.7177 1.36049C89.7079 1.36381 89.6984 1.36775 89.6884 1.37107C89.6486 1.38434 89.6088 1.39741 89.569 1.41068L88.8615 1.64858L88.8673 1.6656C80.0161 5.03422 74.1311 13.5197 74.1311 23.0602Z" fill="white"></path></mask><g mask="url(#mask1_13_273)"><path d="M97.0207 1.97734C102.646 1.97734 107.971 4.19937 111.911 8.13381H100.347C98.2607 5.70997 95.7024 3.75675 92.8411 2.39155C94.2099 2.11631 95.6078 1.97734 97.0207 1.97734ZM74.1311 23.0602C74.1311 30.9743 78.1342 38.2199 84.8393 42.4425C84.8862 42.4665 84.9333 42.4906 84.9801 42.5146C85.4263 42.4906 85.9191 42.4423 86.449 42.3564C86.956 42.2742 87.4193 42.1703 87.835 42.0583C87.3133 41.8016 86.6046 41.4259 85.8021 40.9136C81.0502 37.8798 78.8023 33.7491 78.3246 32.8354C76.7769 29.874 75.9379 26.5371 75.9379 23.0602C75.9379 14.0941 81.5825 6.14264 90.0126 3.17412C93.6023 4.44101 96.7884 6.66615 99.2322 9.61393L99.5033 9.94061H115.877L114.651 8.4607C110.283 3.19217 103.857 0.170552 97.0207 0.170552C94.8263 0.170552 92.6648 0.483126 90.5809 1.09313L90.5741 1.07239L89.7177 1.36049C89.7079 1.36381 89.6984 1.36775 89.6884 1.37107C89.6486 1.38434 89.6088 1.39741 89.569 1.41068L88.8615 1.64858L88.8673 1.6656C80.0161 5.03422 74.1311 13.5197 74.1311 23.0602Z" fill="#F0EBE8"></path></g><path d="M13.0982 69.4522C12.1582 71.2955 10.7598 72.4 9.05382 72.6464C5.76982 73.1506 3.10703 71.4341 2.1046 68.1673C1.49791 66.1784 1.67504 64.0719 2.57854 62.5329C3.22899 61.4247 4.21006 60.701 5.41576 60.4403C7.9877 59.8904 10.1989 61.7522 11.4107 63.678L11.4308 63.71H11.6525L12.242 61.4705L12.2009 61.4435C10.6366 60.4129 9.39522 59.8545 7.31734 59.8545C3.44201 59.8545 0.167969 62.9651 0.167969 66.647C0.167969 70.3288 3.36464 73.4396 7.1483 73.4396C10.0264 73.4396 12.1136 72.1374 13.3519 69.5692L13.3828 69.5049L13.127 69.3954L13.0982 69.4522Z" fill="#F0EBE8"></path><path d="M21.7352 68.0063H17.3857L19.4707 62.129L21.7352 68.0063ZM23.9832 69.6278L20.3039 60.0422H18.6738L19.3201 61.7268L16.5111 69.6295C15.8604 71.4834 15.3006 72.2985 14.5539 73.0798L14.535 73.0997V73.3267H16.8877V73.1002L16.8695 73.0805C16.0807 72.2354 16.2153 71.3089 16.7898 69.6749L17.281 68.2929H21.8443L22.7476 70.6344C23.2651 71.9839 23.4078 72.6219 22.9509 73.0788L22.931 73.0987V73.3267H25.96V73.102L25.9439 73.0832C25.2275 72.2346 24.7512 71.501 23.9832 69.6278Z" fill="#F0EBE8"></path><path d="M35.372 68.3006L30.0421 60.0735L30.0219 60.0422H28.1606L29.0714 61.297V71.0047C29.0714 71.7746 28.525 72.7573 27.9252 73.0663L27.8881 73.0854V73.3267H30.5415V73.0854L30.5044 73.0663C29.9045 72.7573 29.358 71.7746 29.358 71.0047V61.6911L34.6048 69.6896L34.6251 69.7203H34.8703L39.9467 60.9285V72.0189C39.9467 72.6913 39.7872 72.9249 39.5479 73.0686L39.5147 73.0883V73.3267H41.9802V73.0873L41.9454 73.0676C41.7002 72.9297 41.5482 72.7061 41.5482 72.0189V61.369C41.5482 60.6752 41.6878 60.4651 41.9454 60.3201L41.9802 60.3006V60.0422H40.1257L35.372 68.3006Z" fill="#F0EBE8"></path><path d="M44.472 60.2994L44.5052 60.3193C44.7398 60.4599 44.8852 60.6847 44.8852 61.369V72.0189C44.8852 72.703 44.7398 72.9278 44.5052 73.0686L44.472 73.0883V73.3267H46.9374V73.0873L46.9027 73.0676C46.6576 72.9297 46.5055 72.7061 46.5055 72.0189V61.369C46.5055 60.6816 46.6576 60.458 46.9027 60.3201L46.9374 60.3006V60.0422H44.472V60.2994Z" fill="#F0EBE8"></path><path d="M57.5769 70.869C57.0696 71.5273 55.6202 73.0589 53.1231 73.0589H51.4821V61.369C51.4821 60.6816 51.6214 60.4636 51.862 60.3193L51.8952 60.2994V60.0422H49.4297V60.3006L49.4645 60.3201C49.7221 60.4651 49.8617 60.6752 49.8617 61.369V72.0189C49.8617 72.7061 49.7097 72.9297 49.4645 73.0676L49.4297 73.0873V73.3267H57.3874L57.8188 70.9538L57.6157 70.8186L57.5769 70.869Z" fill="#F0EBE8"></path><path d="M66.5657 68.0063H62.2162L64.3011 62.129L66.5657 68.0063ZM68.8136 69.6278L65.1343 60.0422H63.5042L64.1505 61.7268L61.3415 69.6295C60.6909 71.4834 60.1313 72.2985 59.3844 73.0798L59.3655 73.0997V73.3267H61.7184V73.1002L61.6999 73.0805C60.9111 72.2354 61.046 71.3089 61.6205 69.6749L62.1114 68.2929H66.6748L67.5783 70.6344C68.0958 71.9839 68.2385 72.6219 67.7815 73.0788L67.7614 73.0987V73.3267H70.7905V73.102L70.7743 73.0832C70.0579 72.2346 69.5819 71.501 68.8136 69.6278Z" fill="#F0EBE8"></path><path d="M90.9066 69.4522C89.9664 71.2955 88.5682 72.4 86.8622 72.6464C83.5784 73.1506 80.9152 71.4339 79.9132 68.1673C79.3063 66.1784 79.4834 64.0721 80.3871 62.5329C81.0374 61.4247 82.0187 60.701 83.2246 60.4403C85.7932 59.8904 88.0071 61.7522 89.2191 63.678L89.2394 63.71H89.4607L90.0381 61.5178L90.0504 61.4705L90.0095 61.4435C88.4452 60.4129 87.2036 59.8545 85.1257 59.8545C81.2506 59.8545 77.9766 62.9651 77.9766 66.647C77.9766 70.3288 81.173 73.4396 84.9569 73.4396C87.8348 73.4396 89.922 72.1374 91.1605 69.5692L91.1914 69.5049L90.9356 69.3954L90.9066 69.4522Z" fill="#F0EBE8"></path><path d="M99.5452 68.0063H95.1953L97.2805 62.129L99.5452 68.0063ZM101.793 69.6278L98.1137 60.0422H96.4838L97.1299 61.7268L94.3209 69.6295C93.6704 71.4832 93.1106 72.2983 92.3637 73.0798L92.3448 73.0997V73.3267H94.6978V73.1002L94.6793 73.0805C93.8907 72.2354 94.0255 71.3091 94.5999 69.6749L95.0908 68.2929H99.6539L100.558 70.6344C101.075 71.9841 101.218 72.6219 100.761 73.0788L100.741 73.0987V73.3267H103.77V73.102L103.754 73.0832C103.038 72.2352 102.562 71.5018 101.793 69.6278Z" fill="#F0EBE8"></path><path d="M113.182 68.3006L107.852 60.0735L107.832 60.0422H105.971L106.881 61.297V71.0047C106.881 71.7746 106.335 72.7573 105.735 73.0663L105.698 73.0854V73.3267H108.351V73.0854L108.314 73.0663C107.714 72.7573 107.168 71.7746 107.168 71.0047V61.6911L112.415 69.6896L112.435 69.7203H112.68L117.757 60.9285V72.0189C117.757 72.6913 117.597 72.9249 117.357 73.0686L117.324 73.0883V73.3267H119.79V73.0873L119.755 73.0676C119.51 72.9297 119.358 72.7061 119.358 72.0189V61.369C119.358 60.675 119.498 60.4651 119.755 60.3201L119.79 60.3006V60.0422H117.936L113.182 68.3006Z" fill="#F0EBE8"></path><path d="M128.919 68.0063H124.569L126.654 62.129L128.919 68.0063ZM131.167 69.6278L127.487 60.0422H125.857L126.504 61.7268L123.694 69.6295C123.044 71.4836 122.484 72.2985 121.737 73.0798L121.718 73.0997V73.3267H124.071V73.1002L124.053 73.0805C123.264 72.2352 123.399 71.3089 123.973 69.6749L124.464 68.2929H129.027L129.931 70.6344C130.449 71.9839 130.591 72.6219 130.134 73.0788L130.115 73.0987V73.3267H133.143V73.102L133.127 73.0832C132.411 72.234 131.934 71.5002 131.167 69.6278Z" fill="#F0EBE8"></path><path d="M137.105 60.3288H138.784C141.468 60.3288 142.773 61.4188 142.773 63.6605C142.773 65.8896 141.468 66.9731 138.784 66.9731H137.105V60.3288ZM142.787 69.8626L141.142 66.9742C143.209 66.4726 144.393 65.2686 144.393 63.6605C144.393 60.9898 141.371 60.0422 138.784 60.0422H135.071V60.2994L135.105 60.3193C135.345 60.4636 135.485 60.6816 135.485 61.369V72.0189C135.485 72.7032 135.339 72.9278 135.105 73.0686L135.071 73.0883V73.3267H137.518V73.0883L137.485 73.0686C137.25 72.9278 137.105 72.703 137.105 72.0189V67.2598H138.784C139.053 67.2598 139.326 67.2426 139.591 67.2249L141.579 70.7L141.614 70.7614C142.319 72.0087 142.673 72.6347 142.229 73.0788L142.209 73.0987V73.3267H145.238V73.0966L145.215 73.0763C144.531 72.4617 143.917 71.8349 142.787 69.8626Z" fill="#F0EBE8"></path><path d="M156.37 67.2184L156.434 67.2221C157.312 67.276 157.816 67.9495 157.816 69.07V71.5415C157.133 72.2789 156.281 72.7198 155.284 72.8528C152.088 73.2664 149.567 71.5141 148.539 68.1673C147.933 66.1784 148.11 64.0721 149.013 62.5329C149.664 61.4247 150.645 60.701 151.851 60.4403C154.42 59.8904 156.633 61.7522 157.845 63.678L157.866 63.71H158.087L158.664 61.5178L158.677 61.4705L158.636 61.4435C157.071 60.4129 155.83 59.8545 153.752 59.8545C149.877 59.8545 146.603 62.9651 146.603 66.647C146.603 70.3924 149.641 73.4396 153.376 73.4396C157.008 73.4396 158.89 71.4785 159.43 70.3196L159.436 68.2623C159.436 67.5751 159.576 67.3571 159.817 67.2126L159.85 67.1929V66.9357H156.37V67.2184Z" fill="#F0EBE8"></path><path d="M167.051 60.4388C167.529 60.2926 167.995 60.2244 168.444 60.2244C171.043 60.2244 173.09 62.5009 173.897 65.1268C174.838 68.216 174.092 71.8628 170.842 72.8553C169.379 73.3023 167.926 73.0397 166.641 72.0953C165.444 71.2153 164.505 69.8136 163.996 68.1484C163.395 66.1867 163.505 64.2036 164.3 62.7075C164.893 61.5916 165.844 60.8072 167.051 60.4388ZM168.946 59.8545C165.149 59.8545 162.06 62.9017 162.06 66.647C162.06 70.3924 165.149 73.4396 168.946 73.4396C172.744 73.4396 175.832 70.3924 175.832 66.647C175.832 62.9017 172.744 59.8545 168.946 59.8545Z" fill="#F0EBE8"></path><mask id="mask2_13_273" style="mask-type:luminance" maskUnits="userSpaceOnUse" x="63" y="84" width="50" height="6"><path d="M112.983 84.5638L111.06 87.8926V89.7164H110.279V87.8926L108.355 84.5638H109.261L110.672 87.0059L112.078 84.5638H112.983ZM101.616 85.3443H100.21V84.5638H103.802V85.3443H102.397V89.7164H101.616V85.3443ZM91.0293 87.7615V84.5638H91.81V87.7615C91.81 88.1321 91.9393 88.4464 92.1973 88.7046C92.4555 88.9628 92.7697 89.0919 93.1406 89.0919C93.5069 89.0919 93.8191 88.9628 94.0773 88.7046C94.3355 88.4464 94.4647 88.1321 94.4647 87.7615V84.5638H95.2452V87.7615C95.2452 88.3445 95.0391 88.8419 94.6269 89.2541C94.2148 89.6664 93.7193 89.8726 93.1406 89.8726C92.5576 89.8726 92.06 89.6664 91.6478 89.2541C91.2355 88.8419 91.0293 88.3445 91.0293 87.7615ZM84.434 88.155L83.3222 85.7753L82.2105 88.155H84.434ZM84.7963 88.9357H81.8357L81.4735 89.7164H80.6117L83.0163 84.5638H83.6159L86.0329 89.7164H85.1585L84.7963 88.9357ZM75.79 84.5638V85.3443H73.2917V86.7497H75.1654V87.5304H73.2917V88.9357H75.79V89.7164H72.5109V84.5638H75.79ZM63.7983 87.3743V88.9357H65.3659C65.5823 88.9357 65.7667 88.8598 65.9187 88.7077C66.0705 88.5557 66.1466 88.3715 66.1466 88.155C66.1466 87.9386 66.0705 87.7542 65.9187 87.6022C65.7667 87.4504 65.5823 87.3743 65.3659 87.3743H63.7983ZM63.7983 86.5935H65.3659C65.5366 86.5935 65.6835 86.5321 65.8063 86.4094C65.9291 86.2866 65.9905 86.1397 65.9905 85.969C65.9905 85.7983 65.9291 85.6515 65.8063 85.5287C65.6835 85.4059 65.5366 85.3443 65.3659 85.3443H63.7983V86.5935ZM65.3659 84.5638C65.7532 84.5638 66.0842 84.7011 66.359 84.9759C66.6339 85.2507 66.7712 85.5818 66.7712 85.969C66.7712 86.3521 66.6359 86.6811 66.3653 86.9559C66.4026 86.9849 66.4381 87.0163 66.4714 87.0494C66.7753 87.3535 66.9273 87.7219 66.9273 88.155C66.9273 88.588 66.7753 88.9566 66.4714 89.2605C66.1674 89.5643 65.799 89.7164 65.3659 89.7164H63.0176V84.5638H65.3659Z" fill="white"></path></mask><g mask="url(#mask2_13_273)"><path d="M112.983 84.5638L111.06 87.8926V89.7164H110.279V87.8926L108.355 84.5638H109.261L110.672 87.0059L112.078 84.5638H112.983ZM101.616 85.3443H100.21V84.5638H103.802V85.3443H102.397V89.7164H101.616V85.3443ZM91.0293 87.7615V84.5638H91.81V87.7615C91.81 88.1321 91.9393 88.4464 92.1973 88.7046C92.4555 88.9628 92.7697 89.0919 93.1406 89.0919C93.5069 89.0919 93.8191 88.9628 94.0773 88.7046C94.3355 88.4464 94.4647 88.1321 94.4647 87.7615V84.5638H95.2452V87.7615C95.2452 88.3445 95.0391 88.8419 94.6269 89.2541C94.2148 89.6664 93.7193 89.8726 93.1406 89.8726C92.5576 89.8726 92.06 89.6664 91.6478 89.2541C91.2355 88.8419 91.0293 88.3445 91.0293 87.7615ZM84.434 88.155L83.3222 85.7753L82.2105 88.155H84.434ZM84.7963 88.9357H81.8357L81.4735 89.7164H80.6117L83.0163 84.5638H83.6159L86.0329 89.7164H85.1585L84.7963 88.9357ZM75.79 84.5638V85.3443H73.2917V86.7497H75.1654V87.5304H73.2917V88.9357H75.79V89.7164H72.5109V84.5638H75.79ZM63.7983 87.3743V88.9357H65.3659C65.5823 88.9357 65.7667 88.8598 65.9187 88.7077C66.0705 88.5557 66.1466 88.3715 66.1466 88.155C66.1466 87.9386 66.0705 87.7542 65.9187 87.6022C65.7667 87.4504 65.5823 87.3743 65.3659 87.3743H63.7983ZM63.7983 86.5935H65.3659C65.5366 86.5935 65.6835 86.5321 65.8063 86.4094C65.9291 86.2866 65.9905 86.1397 65.9905 85.969C65.9905 85.7983 65.9291 85.6515 65.8063 85.5287C65.6835 85.4059 65.5366 85.3443 65.3659 85.3443H63.7983V86.5935ZM65.3659 84.5638C65.7532 84.5638 66.0842 84.7011 66.359 84.9759C66.6339 85.2507 66.7712 85.5818 66.7712 85.969C66.7712 86.3521 66.6359 86.6811 66.3653 86.9559C66.4026 86.9849 66.4381 87.0163 66.4714 87.0494C66.7753 87.3535 66.9273 87.7219 66.9273 88.155C66.9273 88.588 66.7753 88.9566 66.4714 89.2605C66.1674 89.5643 65.799 89.7164 65.3659 89.7164H63.0176V84.5638H65.3659Z" fill="#F0EBE8"></path></g></g><defs><clipPath id="clip0_13_273"><rect width="175.762" height="90.0435" fill="white" transform="translate(0.119141)"></rect></clipPath></defs></svg>