<svg xmlns="http://www.w3.org/2000/svg" width="40" height="40" viewBox="0 0 40 40" fill="none"><g clip-path="url(#clip0_13_217)"><path d="M10 2.00012H30C34.4183 2.00012 38 5.58184 38 10.0001V30.0001C38 34.4184 34.4183 38.0001 30 38.0001H10C5.58172 38.0001 2 34.4184 2 30.0001V10.0001C2 5.58184 5.58172 2.00012 10 2.00012Z" stroke="#706860" stroke-width="4" stroke-linecap="round" stroke-linejoin="round"></path><path d="M28.0033 18.7399C28.2501 20.4044 27.9658 22.1043 27.1908 23.5979C26.4158 25.0915 25.1896 26.3027 23.6866 27.0592C22.1835 27.8157 20.4802 28.0791 18.8189 27.8117C17.1576 27.5444 15.6228 26.76 14.433 25.5702C13.2432 24.3804 12.4588 22.8456 12.1915 21.1843C11.9241 19.523 12.1875 17.8197 12.944 16.3166C13.7005 14.8136 14.9117 13.5874 16.4053 12.8124C17.8989 12.0374 19.5988 11.753 21.2633 11.9999C22.9612 12.2516 24.533 13.0428 25.7467 14.2565C26.9604 15.4702 27.7516 17.042 28.0033 18.7399Z" stroke="#706860" stroke-width="4" stroke-linecap="round" stroke-linejoin="round"></path><path d="M30.9961 9H31.016" stroke="#706860" stroke-width="4" stroke-linecap="round" stroke-linejoin="round"></path></g><defs><clipPath id="clip0_13_217"><rect width="40" height="40" fill="white"></rect></clipPath></defs></svg>